<svg width="18" height="18" viewBox="0 0 18 18" fill="none" xmlns="http://www.w3.org/2000/svg">
<path d="M9.16838 3.56836C5.71405 3.56836 2.76405 5.71696 1.56885 8.74986C2.76405 11.7827 5.71405 13.9313 9.16838 13.9313C12.6227 13.9313 15.5727 11.7827 16.7679 8.74986C15.5727 5.71696 12.6227 3.56836 9.16838 3.56836ZM9.16838 12.2042C7.26159 12.2042 5.71405 10.6567 5.71405 8.74986C5.71405 6.84306 7.26159 5.29552 9.16838 5.29552C11.0751 5.29552 12.6227 6.84306 12.6227 8.74986C12.6227 10.6567 11.0751 12.2042 9.16838 12.2042ZM9.16838 6.67726C8.02154 6.67726 7.09578 7.60301 7.09578 8.74986C7.09578 9.89671 8.02154 10.8224 9.16838 10.8224C10.3153 10.8224 11.241 9.89671 11.241 8.74986C11.241 7.60301 10.3153 6.67726 9.16838 6.67726Z" fill="black" fill-opacity="0.7"/>
</svg>
